<svg xmlns="http://www.w3.org/2000/svg" version="1.0" viewBox="0 0 128 128"><path d="M56.5 14.5L28.2 29.8C-2 46.1-2.1 46.4 17.9 57.1A101 101 0 0130 64c0 .3-5.6 3.6-12.4 7.3C5.1 78.1 3.2 79.9 4.5 83.9c.4 1.3 10.1 7.1 27.8 16.7C56 113.5 60.1 115.4 64 115.4c3.9 0 8.3-2.1 31.8-14.8 34.8-18.9 34.6-18.7 14.3-29.6-6.7-3.6-12.1-6.7-12.1-7 0-.3 5.5-3.4 12.1-7a81 81 0 0013.2-8.1c.5-.9.7-2.7.4-4.1-.6-2.2-5.2-5-27.9-17.3-15-8.1-28.9-14.9-30.8-15.2-2.5-.3-4.9.3-8.5 2.2zm12.8 5.1l26 14.2 22.8 12.5-25.8 13.4A228.2 228.2 0 0164 73.2c-2.5 0-53-25.8-53-27C11 44.9 61.5 18 63.8 18c1.3 0 3.7.7 5.5 1.6zM49.8 74.2l13.7 7.3 26.8.5 26.9.5-25.8 13.8a192 192 0 01-27.9 13.5c-2.8-.4-52.6-27.1-52.2-28.1A324 324 0 0135.8 67l14 7.2z"/></svg>